<svg width="63" height="63" viewBox="0 0 63 63" fill="none" xmlns="http://www.w3.org/2000/svg">
<circle cx="31.5" cy="31.5" r="31" stroke="#D9D9D9"/>
<path d="M31.5 40.5C22.8383 40.5 15.0167 39.3848 9.37743 37.5945C6.55488 36.6985 4.30705 35.642 2.77557 34.4926C1.23542 33.3366 0.5 32.1511 0.5 31C0.5 29.8489 1.23542 28.6634 2.77557 27.5074C4.30705 26.358 6.55488 25.3015 9.37743 24.4055C15.0167 22.6152 22.8383 21.5 31.5 21.5C40.1617 21.5 47.9833 22.6152 53.6226 24.4055C56.4451 25.3015 58.6929 26.358 60.2244 27.5074C61.7646 28.6634 62.5 29.8489 62.5 31C62.5 32.1511 61.7646 33.3366 60.2244 34.4926C58.6929 35.642 56.4451 36.6985 53.6226 37.5945C47.9833 39.3848 40.1617 40.5 31.5 40.5Z" fill="#D9D9D9" stroke="#D9D9D9"/>
</svg>
